<?xml version="1.0" encoding="UTF-8"?><svg id="Layer_1" xmlns="http://www.w3.org/2000/svg" viewBox="0 0 400 212.13"><defs><style>.cls-1{fill:#00954d;}.cls-2{fill:#fff;}.cls-3{fill:#c4932e;}.cls-4{fill:#231f20;}.cls-5{fill:#1c5833;}</style></defs><path class="cls-3" d="M389.15,74.13c-3.2-5.7-6.98-8.9-8.63-10.19h0c-3.42-2.7-7.41-4.53-11.61-5.45-2.02-.45-4.12-.71-6.27-.72-.1,0-.15,0-.16,0-1.36,0-2.72,.11-4.08,.33l-18.91-3.31c-2.05-.38-17.54-2.66-17.54-2.66l14.4-11.77-12.63-2.19c-7.57-1.34-15.72-2.36-23.21-3.13l.1-1.76c.02-.28,.02-.53,.02-.77h0c.29-13.67-15.42-14.35-15.42-14.35l-12.43-.93c-18.52-1.28-37.14-2.04-55.73-2.04-37.88,0-75.68,3.14-112.49,11.41h0l-13.09,3.22,1.44,12.64-6.13,33.16s-10.4,3.52-12.41,4.22c-5.35,1.88-10.7,3.85-16.04,5.9l-13.39,5.32h0c-4.73,1.95-9.46,3.95-14.18,6.03l-5.96,2.62-1.39,6.36c-4.41,20.23-8.8,40.12-13.16,59.67l-5.71,25.54,15.76-6.2,9.18-3.32c3.4-1.23,6.8-2.43,10.22-3.6l2.96-1.01,5.93-1.97,5.95-1.85c3.68-1.14,7.21-2.32,10.53-3.15,14.81-3.71,21.73-3.74,28.53-3.73,18.82,0,8.81,14.96,8.55,15.29l-8.88,12.19,14.19-2.81c30.04-5.95,60.21-9.12,90.38-9.5l1.65-.02c.37,0,.75,0,1.13,0,1.19,0,2.36-.02,3.51-.02s2.31,.01,3.5,.02c.41,0,.81,0,1.2,0l1.58,.02c30.3,.38,60.59,3.58,90.75,9.58l12.16,2.45-7.65-12.63s-7.21-11.18,4.2-14.98c4.5-1.35,16.5-.31,22.77,1.1,4.04,1.05,8.12,1.94,11.11,3.04,1.68,.62,4.52,1.71,7.31,2.77,2.81,1.07,5.52,2.09,7.36,2.68,.64,.21,1.3,.4,1.97,.58,.55,.21,1.12,.42,1.73,.62,2.63,.86,5.44,1.42,8.37,1.44h.32c5.38-.02,10.64-2.12,14.52-6.06,3.74-3.88,5.23-8.36,6.31-12.27l.03-.08c.73-2.85,1.23-5.82,1.52-8.77l.22-2.98c.02-.38,.29-8.11,.4-11.6,.01-.34,.02-.68,.03-1.02l.87-25.5c.1-2.87,.2-5.74,.3-8.61,.03-.74,.04-1.44,.04-2.13,.01-11.16-2.65-19.39-5.88-25.1Zm-11.96-5.94h0Z"/><path class="cls-5" d="M242.89,160.39c1.55,.14,3.1,.28,4.65,.44-.8-1.74-1.61-3.48-2.42-5.22-.74,1.6-1.48,3.19-2.23,4.78Zm-73.76-6.13c-2.88,.23-4.72,1.97-4.64,4.31,.08,2.35,2.04,3.74,4.91,3.51,2.85-.23,4.7-1.92,4.62-4.27-.08-2.35-2.04-3.78-4.89-3.55Zm59.25-.46c-.8-.04-1.61-.09-2.41-.12,.02,2.71,.03,5.42,.05,8.14,.82,.04,1.64,.08,2.46,.13,3.79,.2,4.9-1.89,4.89-3.78-.01-2.2-1.42-4.17-4.99-4.36Zm46.47-42.96c.37-8.07-2.65-15.79-7.77-21.7,1.21,3.75,2.68,10.01,2.41,17.66-.86-8.92-2.96-15.06-4.61-18.7,.26,14.32-3.99,21.07-3.99,21.07,0,0-4.16-9.24-11.92-14.71-2.97-1.94-7.63-4.48-10.46-7.05,1.56,4.64,5.34,15.6,8.69,23.03-5.21-8.85-9.94-20.29-11-22.91-1.61,7.02-.73,18.83-.73,18.83,0,0-1.3-5.51-7.22-11.09-2.82-2.67-4.81-5.13-6.14-6.93-.7,3.14-1.4,9.36,.85,18-2.62-5.32-3.03-12.79-2.99-17.39-1.93,4.59-2.84,9.25-3.06,14.18-.43,9.44,3.03,17.46,8.75,23.19-.14-.65-.24-1.55-.29-2.8-.19-5.03,3.31-8.8,3.31-8.8,0,0-.9,3.06-.79,6.08,.31,8.46,9.4,14.41,19.87,14.02,.02,.01,.03,.02,.06,.03,2.46-.05,4.11-.36,6.61-.99-2.87-1.2-4.35-2.02-5.15-2.7-.24-.2-.49-.39-.74-.6-.37-.29-.7-.57-.92-.82-.49-.45-.96-.92-1.41-1.39l-1.72-.16c-4.46-.41-7.42-1.9-9.21-3.77-1.8-1.87-2.38-3.98-2.33-5.52,0-.11,0-.2,.01-.29,.18-2.15,1.12-3.74,1.99-4.74,.38-.44,.75-.76,1.05-1.01l.31-3.17c-.01-.06-.02-.09-.02-.09,0,0,8.33,20.59,22.04,22.42,5.01,.66,3.39-16.61,3.39-16.61,0,0,2.02,8.54,2.18,15.94,6.3-4.26,10.55-11.36,10.96-20.5Zm-43.32-52.39c1,2.19,2.32,5.51,3.5,9.81-1.43-3.89-3.2-7.02-4.5-9.06,.21,3.5-.65,7.32-.84,9.41-.01,.15,0,.3,.02,.46,.84,1.07,1.71,2.14,2.47,3.11,1.97,2.49,3.74,4.79,3.89,5.03,.19-.39,2.89-6.77,3.58-9.98,0,0,.05-.24,.13-.6-1.81-2.48-5.5-6.13-8.25-8.17Zm-8.18,24.69l.94,1.35c1.14,1.65,3.18,4.5,6.63,7.78,.11,.1,.21,.2,.32,.3,.22-3.1,.31-4.98,1.61-8.85,.28-.85,.59-1.61,.91-2.3-.87-2.45-4.41-6.21-6.04-8.36-.08,2.32,0,5.96,.88,10.19-1.25-4.19-1.87-7.61-2.17-9.95-1.2,3.14-2.88,7.44-3.08,9.84Zm37.76-4.75c2.68,1.87,6.42,5.41,6.42,5.41,1.89,1.78,3.59,3.76,5.07,5.9,.25-1.04,.34-1.44,.45-3.79,.09-2.06-5.53-10.47-11.14-15.78,1.18,2.08,2.69,5.06,4.17,8.87-2.04-4.19-4.41-7.38-5.92-9.22,.68,2.73,.72,6.4,.95,8.61Zm17.91,33.02c-.07,1.74-.28,3.42-.6,5.04,1.02-2.8,2.05-6.57,2.23-10.75,.4-8.8-4.29-17.2-4.29-17.2,0,0,.39,2.95-.66,6.63,2.35,5.01,3.58,10.57,3.32,16.28Zm98.17-43.21c-2.75-2.17-6-3.68-9.44-4.43-1.74-.38-3.49-.6-5.24-.6-2.46,0-4.93,.44-7.22,1.37l.05-1.51-6.25-1.16c-3.57-.66-7.15-1.28-10.72-1.87v-.04l-4.97-.75-5.76-.89,.02-.05-8.25-1-6.36-.82v.07c-2.01-.23-4.01-.44-6.02-.64l-5.5-.55-1.1-.12-7.08-.52c-2.89-.21-5.78-.39-8.67-.55,3.02-2.52,5.48-6.1,7.36-10.72,.08-.19,.16-.38,.24-.57,5.75,.21,17.07,.82,29.37,2.23l.16,.02,.13-.1c.34-.27,.68-.55,1.02-.82l.67-.54-.85-.14c-15.28-2.7-33.33-4.12-42.86-4.75l-.28-.02-.1,.27c-.47,1.19-.95,2.4-1.42,3.6l-.22,.55,.59-.02c1.29-.04,2.58-.07,3.87-.1-.05,.14-.09,.24-.11,.29-.07,.21-.19,.51-.35,.91-1.13,2.86-2.51,5.09-4.12,6.7-1.14,1.13-2.27,1.85-3.39,2.17-.79-.34-1.21-1-1.3-2.25,0-.12-.01-.24-.01-.36,0-1.81,.74-4.72,2.26-8.6,1.64-4.22,3.32-7.26,4.98-9.15,1.23-1.4,2.47-2.21,3.73-2.48,.43,.18,.72,.42,.93,.74,.21,.32,.34,.79,.38,1.4l.02,.34,.34,.02c3.03,.19,6.05,.4,9.08,.61l.39,.03,.02-.39c0-.16,.01-.32,.01-.48,0-1.77-.58-3.26-1.77-4.37-1.36-1.28-3.37-2.02-5.99-2.22-.49-.04-.97-.06-1.44-.06-.4-.06-.8-.11-1.23-.14-.5-.04-1-.06-1.49-.06-3.74,0-7.05,1.12-9.87,3.41-3.2,2.58-5.85,6.69-8.01,12.36-1.43,3.75-2.15,6.89-2.15,9.41,0,1.01,.13,1.91,.37,2.72-2.13-.04-4.15-.09-6.1-.14,2.83-7.74,5.68-15.33,8.53-22.73l.2-.51-.54-.02c-2.84-.13-5.67-.24-8.51-.33-.02,0-.03,0-.04,0-.28,.03-.26,.13-.3,.14-.09,.13-.05,.08-.07,.11-.18,.44-3.64,9.85-5.06,13.96-.43-4.69-.86-9.38-1.29-14.07l-.03-.34h-.34c-3.03-.09-6.05-.15-9.07-.19h-.28l-.09,.26c-2.67,7.41-5.32,14.98-7.96,22.7l.42,.27s.07,.04,.1,.06c1.29,.82,2.57,1.81,3.84,2.91-.25-.86-.54-1.77-.89-2.8l-.6-1.71,7.34-1.62c.79-2.35,1.58-4.7,2.09-6.3,.24,2.48,.49,4.96,.73,7.43,4.95,2.97,9.64,7.26,13.39,11.64l1.42,1.7,2.41-.03,.47,.41c3.03,2.7,5.6,5.22,7.16,7.15,3.22,3.99,4.25,5.89,5.58,8.11,.66,1.13,1.46,2.71,2.01,3.97l1.85-.03,.48,.77c.31,.5,.61,1.02,.89,1.54v.03l.03,.02c1.31,2.63,1.46,2.66,2.7,6.22,1.24,3.58,2.51,8.43,2.35,13.8,0,.12,0,.25-.01,.37,0,.17-.02,.33-.03,.48,0,.08,0,.2,0,.33v.09c-.28,6.35-2.02,12.05-4.84,16.79-.14,.27-.25,.46-.3,.55h0l-.28,.57-.15,.06c-1.69,2.59-3.73,4.88-6.04,6.79-2.55,2.12-5.42,3.79-8.5,4.98-5.31,3.29-11.66,4.94-18.34,4.73h0c-1.25-.04-2.5-.14-3.77-.31-9.17-1.22-17.67-5.56-23.81-12.39-6.02-6.68-9.61-15.76-9.3-25.81,0-.23,.02-.45,.03-.66,.28-6.35,1.64-12.6,4.64-18.64l1.19-2.4h.74c.12-.86,.31-1.65,.52-2.44,.31-1.16,.69-2.32,1.09-3.46,.5-1.44,1.74-4.55,3.15-7.41l.44-.91h1.09l.11-1.11h.04c.25-1.78,.57-3.63,.64-5.34,.04-.9,.07-1.62,.09-2.22,.04-1.39,.03-2.11,0-3.03l-.04-1.29,2.7-.69c2.7-8.06,5.43-15.96,8.16-23.68l.18-.51h-.54c-1.59-.01-3.19-.02-4.79-.02-10.62,0-21.22,.23-31.81,.75h-.27l-.08,.27c-.42,1.33-.84,2.66-1.27,3.99l-.17,.56,.59-.06c2.51-.26,5.03-.5,7.54-.72-2.37,7.35-4.74,14.85-7.08,22.48l-4.35,.53c-2.09,.26-4.18,.53-6.26,.81,1.22-4.11,2.45-8.19,3.68-12.23,2.21-.31,4.42-.6,6.62-.89l.17-.02,.1-.14c.35-.5,.69-1,1.04-1.5l.46-.67-.81,.06c-2.26,.17-4.52,.34-6.77,.54,1.27-4.15,2.55-8.26,3.83-12.32l.16-.54-.56,.03c-2.94,.16-5.89,.34-8.82,.54l-.27,.02-.08,.26c-1.31,4.26-2.61,8.56-3.91,12.92-1.85,.19-3.71,.39-5.56,.6,1.26-4.31,2.53-8.58,3.79-12.81l.17-.54-.57,.04c-2.94,.24-5.89,.5-8.83,.79l-.26,.02-.07,.25c-1.3,4.43-2.59,8.9-3.87,13.42-5.74,.75-11.46,1.61-17.17,2.57l-.24,.04-.06,.24c-.4,1.47-.79,2.94-1.19,4.41l-.17,.62,.63-.15c1.39-.32,2.78-.64,4.17-.95,0,.03-.01,.06-.02,.09-.06,.24-.15,.59-.27,1.04-.89,3.28-2.07,5.94-3.53,7.98-1.02,1.44-2.09,2.43-3.18,3.01-.76-.19-1.22-.77-1.41-2.08-.04-.32-.07-.68-.07-1.08,0-1.97,.52-4.97,1.56-8.91,1.28-4.83,2.68-8.42,4.17-10.81,1.1-1.76,2.27-2.9,3.49-3.46,.42,.1,.71,.28,.92,.57,.23,.3,.4,.78,.49,1.43l.05,.38,.39-.05c2.99-.42,5.99-.81,8.98-1.17l.35-.04v-.35c-.06-2.13-.76-3.79-2.15-4.85-1.13-.86-2.61-1.28-4.41-1.28-.54,0-1.12,.04-1.72,.11-.48,.06-.96,.14-1.41,.24-.39,.01-.8,.05-1.22,.1-4.31,.56-7.95,2.57-10.85,6-2.91,3.42-5.17,8.36-6.83,14.81-.93,3.64-1.4,6.69-1.4,9.14,0,1.61,.21,2.95,.63,4.05l-1.79,.41-4.34,1.11c2.44-9.87,4.17-16.72,6.88-27.07l.15-.58-.59,.1c-2.91,.49-5.81,1.02-8.7,1.57l-.23,.04v.02c-5.46,1.06-10.9,2.22-16.31,3.49,.6-2.43,2.31-9.14,2.77-11.03,38.47-9.03,78.12-12.39,117.88-12.39,13.41,0,26.83,.38,40.23,1.06h.15l.12-.09c.31-.27,.61-.54,.91-.8l.71-.62-.93-.06c-18.43-1.27-36.92-2.02-55.37-2.02-37.63,0-75.08,3.12-111.44,11.31,0,0-5.54,1.35-8.05,1.97l-.32,.08,.03,.33c.04,.55,.09,1.11,.14,1.66l.03,.4,.4-.04c2.19-.24,4.38-.46,6.58-.67-.69,2.85-2.66,10.67-3.25,13.16-1.34,.34-2.69,.68-4.03,1.04l-.31,.08,.02,.32c.04,.49,.08,.97,.13,1.46l.03,.4,.4-.04c1.03-.12,2.05-.23,3.08-.33-2.39,10.27-3.84,17.25-5.99,27.12-1.28,.4-2.55,.8-3.83,1.21l-4.93,1.59-.04,1.32c-3.13,.1-6.23,.83-9.54,1.98-5.3,1.87-10.59,3.81-15.88,5.85l-13.28,5.27c-4.69,1.93-9.38,3.92-14.06,5.98l-3.44,1.51-.8,3.67c-4.41,20.24-8.8,40.14-13.17,59.7l-3.5,15.62,6.37-2.5,9.25-3.35c3.43-1.24,6.86-2.45,10.31-3.63l2.95-1.01,6.01-1.99,6.02-1.87c3.6-1.12,7.22-2.33,10.82-3.24,35.58-8.9,47.49-2.54,48.66,2.53,1.93,8.3-5.19,17.31-6,18.35,30.36-6.02,60.85-9.22,91.36-9.61h0c.94-.02,1.88-.02,2.81-.03,1.18,0,2.36-.02,3.54-.02s2.36,0,3.54,.02c.94,0,1.88,0,2.81,.02h0c30.63,.4,61.26,3.63,91.74,9.69-.39-.49-8.78-11.01-3.86-19.1,4.42-7.27,16.47-9.24,35.58-4.92,3.9,1.02,8.13,1.92,11.68,3.22,3.55,1.3,11.3,4.37,14.45,5.38,.67,.22,1.34,.41,2.01,.58,.56,.22,1.12,.44,1.69,.62,2.29,.75,4.56,1.18,6.85,1.18h.2c3.93,0,7.88-1.6,10.66-4.44,2.73-2.83,3.94-6.21,4.96-9.93,.96-3.72,1.49-7.79,1.62-11.73,.12-3.48,.24-6.96,.36-10.45,.03-.92,.04-1.84,.04-2.77,0-1.18,.86-23.75,.86-23.75,.1-2.87,.2-5.74,.29-8.61,.02-.66,.03-1.31,.03-1.95,0-20.64-9.69-28.87-12.45-31.04Zm-257.3,3.25c-5.37,1.43-10.73,2.94-16.09,4.52,2.06-9.17,3.46-15.59,5.79-25.33,5.48-1.64,10.99-3.15,16.51-4.55-2.45,9.65-3.98,16.03-6.21,25.36Zm17.74,96.27c-2.62,.37-3.94-.02-5.45-.46-.02-.92-.05-1.84-.08-2.76,2.19,.9,3.52,1.14,5.17,.91,1.43-.2,2.19-.73,2.17-1.49-.07-2.12-7.68-.25-7.82-4.84-.07-2.21,2.12-4.02,5.61-4.51,1.67-.23,3.2-.14,5.12,.31,.02,.83,.05,1.66,.07,2.5-2.21-.54-3.52-.68-4.79-.51-1.35,.19-2.19,.72-2.17,1.37,.06,1.92,7.68,.33,7.82,4.82,.07,2.46-2.3,4.19-5.65,4.66Zm37.96-119.57c1.88-.32,3.76-.63,5.65-.93-1.19,4-2.37,8.05-3.55,12.12l-1.06,.15s-2.1,.16-4.39,.34c1.11-3.92,2.23-7.82,3.35-11.67Zm-12.98,2.75c.03-.12,.07-.24,.1-.36,1.03-.2,2.06-.41,3.1-.61-.99,3.49-1.97,7.01-2.95,10.54-2.04,.26-3.77,.67-4.93,1,1.95-2.9,3.52-6.42,4.68-10.58Zm-3.09,113.36c-2.1,1.08-3.7,1.55-5.92,1.74-5.85,.48-8.74-2.45-8.73-5.77,.01-3.43,3.31-6.98,9.07-7.46,2.1-.17,3.98,.07,5.45,.72,0,.96,0,1.91,0,2.87-1.66-.67-3.33-1.07-5.19-.92-3.2,.25-5.46,2.09-5.47,4.37,0,2.3,2.21,3.73,5.34,3.48,1.97-.16,3.29-.79,5.47-1.83,0,.94,0,1.87-.01,2.81Zm9.96,.51c-5.53,.45-8.75-2.54-8.87-5.81-.1-3.09,2.73-6.88,8.41-7.35,5.68-.45,8.74,2.88,8.85,5.96,.12,3.29-2.98,6.77-8.4,7.2Zm22.11-11.55c-1.61,.03-3.21,.07-4.81,.12,.04,3.5,.08,6.99,.11,10.49-1.26,.04-2.51,.08-3.76,.12-.04-3.49-.08-6.99-.11-10.49-1.82,.07-3.65,.14-5.47,.23,0-.79-.02-1.57-.03-2.36,4.69-.22,9.38-.37,14.07-.47v2.35Zm10.56-.09c.04,3.5,.08,7,.11,10.49-1.26,0-2.51,0-3.77,.01-.03-3.49-.07-6.99-.11-10.49-1.66,0-3.32,.03-4.97,.06v-2.35c4.73-.08,9.46-.09,14.19-.04,0,.79,.02,1.57,.02,2.35-1.82-.02-3.65-.03-5.48-.03Zm5.48-97.48c2.4-7.56,4.8-14.99,7.22-22.28,3.37-.24,6.73-.46,10.1-.64-2.47,7.21-4.93,14.58-7.38,22.07l-2.14,.17c-2.6,.2-5.2,.44-7.8,.68Zm6.74,108.28c-2.64-.02-3.96-.6-5.48-1.26-.03-.92-.05-1.85-.09-2.77,2.21,1.22,3.55,1.66,5.21,1.68,1.44,.01,2.2-.41,2.18-1.16-.06-2.13-7.73-1.4-7.87-5.99-.07-2.22,2.14-3.71,5.64-3.67,1.68,.02,3.22,.34,5.15,1.07,.02,.84,.05,1.67,.07,2.5-2.22-.87-3.53-1.2-4.82-1.22-1.35-.01-2.2,.4-2.19,1.04,.06,1.92,7.73,1.47,7.87,5.98,.08,2.47-2.31,3.84-5.69,3.81Zm14.12,.38c-2.08-.11-4.16-.21-6.25-.3-.03-4.28-.06-8.56-.09-12.84,2.22,.09,4.45,.2,6.67,.32,5.51,.31,8.37,3.45,8.39,6.96,.02,3.7-2.7,6.19-8.73,5.86Zm21.36,1.55c-.41-.89-.82-1.78-1.23-2.67-2.25-.22-4.5-.43-6.75-.63-.38,.81-.76,1.63-1.14,2.44-1.33-.11-2.66-.22-3.99-.32,2.04-4.12,4.09-8.23,6.13-12.33,1.46,.13,2.91,.26,4.36,.41,2.22,4.49,4.45,9,6.67,13.52-1.35-.15-2.7-.29-4.06-.43Zm5.27,.5c-.05-4.28-.11-8.56-.16-12.84,1.25,.12,2.5,.25,3.76,.39,.04,3.5,.08,6.99,.13,10.49,2.58,.27,5.16,.58,7.74,.89,0,.79,.02,1.57,.03,2.35-3.83-.47-7.66-.9-11.5-1.28Zm13.46,1.56c-.05-4.28-.09-8.56-.14-12.84,3.66,.47,7.31,.98,10.95,1.52,0,.79,.01,1.57,.03,2.36-2.4-.36-4.8-.7-7.19-1.03,0,.9,.02,1.79,.02,2.69,2.29,.31,4.58,.64,6.87,.98,0,.78,.01,1.57,.03,2.35-2.29-.34-4.58-.66-6.87-.97,.01,1.03,.02,2.06,.03,3.09,2.45,.33,4.9,.68,7.35,1.05,0,.78,.01,1.57,.02,2.35-3.7-.55-7.4-1.07-11.1-1.55Zm-25.54-110.62c.51,1.58,1.24,4.11,1.82,7.16,6.78,3.45,10.08,7.29,11.59,8.77-.18-.64,.01-4.24-1.66-7.29-3.72-4.38-8.54-7.88-10.91-9.48,1.66,1.73,3.88,4.26,6.29,7.64-2.6-3.07-5.23-5.34-7.13-6.81Zm1.29,29.48c9.14,5.9,13.23,9.95,15.35,12.77,.44-2.11,.8-4.7,.94-7.8,.07-1.58,.08-3.29,.02-5.14,0,0,0-.07,0-.19-1.61-7.28-10.14-13.77-14.45-16.53,1.79,3.02,4.38,8.01,6.45,14.61-3.69-7.63-7.1-12.44-9.16-15-1.41,5.75-4.05,10.73-4.86,12.18,1.3,1.58,3.15,3.41,5.7,5.1Z"/><path class="cls-4" d="M158.35,129.79c-.37-1.62-.51-3.85-.45-5.43,.38-11.22,.76-22.43,1.14-33.64,.08-2.35,.68-6.28,1.65-7.62,.63-.87,1.68-1.64,2.46-1.96,.78-.33,1.91-.64,3.23-.64,.17,0,.33,.04,.49,.06-.21-.81-.52-1.47-.95-1.96-.63-.74-1.51-1.13-2.62-1.18-1.33,0-2.45,.32-3.23,.64-.78,.32-1.82,1.09-2.46,1.96-.97,1.35-1.57,5.28-1.65,7.62-.38,11.21-.76,22.43-1.13,33.64-.08,2.34,.25,6.14,1.15,7.22,.59,.7,1.38,1.13,2.38,1.3Zm15.71-41.07c2.7,.72,5.1,2.15,6.97,4.15,.08-2.23,.15-4.45,.23-6.68,.19-5.55-1.12-9.75-3.93-12.49-.51-.49-1.04-.92-1.62-1.29,1.79,2.66,2.63,6.23,2.48,10.7-.08,2.23-.15,4.45-.23,6.68-1.86-2.01-4.26-3.44-6.97-4.15-.25-.07-.51-.13-.77-.18,.02,.42,.03,.87,.01,1.34-.01,.44-.03,.89-.05,1.33,1.34,.07,2.64,.25,3.88,.59Zm-23.39,50.15c2.67,2.83,6.72,4.01,12.15,3.55,.06,0,.12-.02,.18-.03,.07,0,.13,0,.2,0,4.98-.42,8.97-2.26,11.99-5.65,3.01-3.39,4.62-7.87,4.8-13.43,.07-2.23,.15-4.45,.23-6.68-.99,1.18-2.09,2.25-3.29,3.2,0,.14,0,.27-.01,.4-.19,5.56-1.79,10.04-4.81,13.43-3.02,3.39-7.02,5.23-11.99,5.65-.07,0-.13,0-.2,0-.06,0-.12,.02-.18,.03-4.28,.36-7.68-.31-10.24-1.98,.03,.05,.07,.11,.1,.15,.33,.48,.68,.95,1.07,1.36Zm93.72,.9c7.77,1.03,15.2-.53,21.19-4.28,2.98-1.14,5.74-2.74,8.19-4.77,2.31-1.91,4.33-4.22,6-6.87,0,0,.2-.28,.39-.64,2.7-4.51,4.37-9.96,4.64-16.08,0-.15,0-.29,0-.44,.02-.15,.03-.31,.03-.46,.22-5.23-1.01-10.03-2.25-13.58-1.25-3.55-1.27-3.31-2.62-6.04-.26-.48-.55-.97-.85-1.45l-2.05,.03c-.35-1.04-1.5-3.42-2.31-4.77-1.36-2.25-2.28-3.97-5.46-7.92-1.45-1.8-3.99-4.29-6.98-6.96l-2.56,.03-1.91-2.28c-4.07-4.76-9.31-9.44-14.63-12.24l-5.57,1.23c1.07,3.08,1.57,5.2,2.05,8.08-.54-.56-1.1-1.12-1.68-1.67-1.93-1.83-3.86-3.48-5.74-4.66,0,0-.02-.02-.05-.04l-5.8,1.48c.04,1.34,.04,2.34-.09,5.37-.1,2.38-.61,4.85-.83,6.93h0c0,.08-.02,.2-.02,.34-.01,.25,0,.5,.01,.74l-1.64-.02c-1.37,2.78-2.6,5.87-3.08,7.23-.39,1.12-.76,2.25-1.05,3.35-.29,1.12-.53,2.16-.59,3.37,0,.1,0,.19,0,.29h-1.24l-.74,1.48c-2.89,5.82-4.2,11.82-4.47,18-.47,9.9,2.98,18.81,8.86,25.33,5.87,6.53,14.02,10.7,22.83,11.87Zm31.98-51.28s4.69,8.4,4.29,17.2c-.19,4.19-1.21,7.95-2.23,10.75,.32-1.62,.52-3.3,.6-5.04,.26-5.71-.97-11.27-3.32-16.28,1.06-3.68,.66-6.63,.66-6.63Zm-14.46-18.36c5.61,5.31,11.23,13.72,11.14,15.78-.11,2.35-.2,2.75-.45,3.79-1.48-2.13-3.18-4.11-5.07-5.9,0,0-3.74-3.55-6.42-5.41-.24-2.2-.27-5.88-.95-8.61,1.51,1.84,3.87,5.03,5.92,9.22-1.47-3.81-2.98-6.79-4.17-8.87Zm-1.26,16.29c0,.12,0,.19,0,.19,.07,1.85,.05,3.56-.02,5.14-.14,3.09-.51,5.69-.94,7.8-2.12-2.82-6.21-6.87-15.35-12.77-2.56-1.68-4.4-3.52-5.7-5.1,.81-1.45,3.45-6.44,4.86-12.18,2.06,2.56,5.47,7.37,9.16,15-2.07-6.6-4.65-11.59-6.45-14.61,4.31,2.76,12.84,9.26,14.45,16.53Zm-10.47-22.31c-2.41-3.38-4.63-5.91-6.29-7.64,2.37,1.59,7.19,5.09,10.91,9.48,1.68,3.05,1.49,6.64,1.66,7.29-1.51-1.49-4.81-5.33-11.59-8.77-.58-3.05-1.31-5.58-1.82-7.16,1.9,1.47,4.53,3.74,7.13,6.81Zm-19.67-4.9c1.3,2.03,3.08,5.17,4.5,9.06-1.17-4.3-2.5-7.62-3.5-9.81,2.75,2.04,6.44,5.69,8.25,8.17-.07,.36-.13,.6-.13,.6-.69,3.22-3.39,9.6-3.58,9.98-.16-.24-1.93-2.54-3.89-5.03-.76-.97-1.64-2.04-2.47-3.11-.02-.16-.03-.31-.02-.46,.19-2.09,1.05-5.91,.84-9.41Zm-4.09,14.1c.3,2.34,.92,5.76,2.17,9.95-.88-4.23-.96-7.87-.88-10.19,1.63,2.15,5.17,5.91,6.04,8.36-.31,.68-.62,1.45-.91,2.3-1.3,3.87-1.39,5.75-1.61,8.85-.1-.1-.21-.2-.32-.3-3.45-3.28-5.48-6.13-6.63-7.78l-.94-1.35c.2-2.4,1.88-6.7,3.08-9.84Zm-9.54,29.83c.22-4.93,1.13-9.59,3.06-14.18-.04,4.61,.38,12.08,2.99,17.39-2.25-8.64-1.54-14.86-.85-18,1.33,1.8,3.32,4.26,6.14,6.93,5.92,5.58,7.22,11.09,7.22,11.09,0,0-.88-11.81,.73-18.83,1.06,2.62,5.79,14.06,11,22.91-3.35-7.43-7.13-18.39-8.69-23.03,2.83,2.57,7.49,5.1,10.46,7.05,7.77,5.47,11.92,14.71,11.92,14.71,0,0,4.25-6.75,3.99-21.07,1.65,3.64,3.75,9.79,4.61,18.7,.27-7.65-1.2-13.91-2.41-17.66,5.13,5.91,8.14,13.63,7.77,21.7-.41,9.14-4.66,16.24-10.96,20.5-.16-7.4-2.18-15.94-2.18-15.94,0,0,1.61,17.28-3.39,16.61-13.71-1.83-22.04-22.42-22.04-22.42,0,0,0,.04,.02,.09l-.31,3.17c-.31,.24-.67,.57-1.05,1.01-.88,1-1.81,2.59-1.99,4.74,0,.08-.01,.18-.01,.29-.05,1.54,.53,3.65,2.33,5.52,1.79,1.87,4.75,3.36,9.21,3.77l1.72,.16c.45,.48,.92,.94,1.41,1.39,.23,.25,.56,.52,.92,.82,.24,.21,.49,.4,.74,.6,.8,.68,2.27,1.5,5.15,2.7-2.5,.63-4.15,.94-6.61,.99-.02-.01-.03-.02-.06-.03-10.47,.39-19.55-5.56-19.87-14.02-.11-3.02,.79-6.08,.79-6.08,0,0-3.5,3.76-3.31,8.8,.05,1.25,.15,2.15,.29,2.8-5.71-5.74-9.17-13.75-8.75-23.19Zm22.58,20.16c.57,.02,1.1-.17,1.54-.5,.83,1.12,1.81,2.29,2.93,3.39-6.72,.05-8.36-3.63-8.38-5.28-.04-2.75,1.91-4.09,1.91-4.09,0,0,.15,.36,.45,.96-.6,.55-1,1.39-1.03,2.34-.06,1.71,1.1,3.14,2.58,3.18Zm-43.25-16.14c1.88-.11,4.98-.31,7.56-.45,.04-1.08,.07-2.16,.11-3.25-2.47,.11-7.96,.45-10.75,.62-.36,10.68-.72,21.36-1.09,32.04-2.49,.06-4.97,.14-7.46,.23-.04,1.06-.07,2.13-.11,3.2,3.55-.16,7.1-.27,10.65-.36,.36-10.68,.72-21.36,1.09-32.04Zm20.88,17.59c-1.15-1.74-2.16-3.59-3-5.54-.19,5.62-.38,11.24-.57,16.87-2.52-.05-5.03-.07-7.55-.09-.04,1.02-.07,2.05-.1,3.07,3.58,0,7.16,.02,10.74,.1,.16-4.8,.33-9.61,.49-14.41Zm-19.54-57.18c-1.06,.13-2.13,.27-3.2,.41-.29,8.57-.58,17.14-.87,25.71,.86-.06,1.98-.14,3.19-.23,.29-8.63,.59-17.25,.87-25.88Zm168.93,69.12c.14-4.07,.28-8.14,.42-12.21-1.29-.41-2.33-1.18-3.11-2.3-.13,3.81-.26,7.62-.39,11.43-2.42-.74-4.55-1.85-6.4-3.31,2.42,3.07,5.58,5.19,9.48,6.39Zm-149.57-55.22h.74c.12-.86,.31-1.65,.52-2.44,.16-.59,.34-1.19,.53-1.78,.13-3.95,.27-7.9,.4-11.85-1.07,.09-2.13,.18-3.19,.27-.22,6.41-.43,12.82-.65,19.23,.16-.34,.3-.68,.47-1.02l1.19-2.4Zm151.44,34.9c-.17-.36-.36-.69-.57-.99,0,.26-.02,.51-.03,.77,.2,.06,.4,.14,.59,.22Zm-5.16,4.79s-.01-.02-.02-.04c-.86-1.79-1.14-6.92-1.04-9.97,.16-4.74,.32-9.48,.48-14.22,.1-3.04,.73-7.95,1.69-9.27,.96-1.32,2.34-1.78,4.12-1.36,.32,.08,.63,.18,.92,.31-.01-.03-.03-.07-.04-.11-.86-1.77-2.18-2.86-3.96-3.28-1.78-.42-3.16,.04-4.12,1.36-.96,1.32-1.59,6.23-1.69,9.27-.16,4.74-.32,9.48-.49,14.22-.1,3.05,.18,8.18,1.04,9.97,.71,1.48,1.74,2.52,3.1,3.12Zm14.04-20.05c-.97-1.16-2.01-2.2-3.1-3.1-.21-.17-.42-.34-.64-.5,0,.36-.02,.71-.03,1.07,1.3,.69,2.56,1.52,3.75,2.51,0,0,.02,.01,.02,.02Zm-234.38-23.93c-1.07,.24-2.14,.5-3.21,.75-.7,20.79-1.41,41.57-2.11,62.36-2.58,.34-5.15,.7-7.73,1.08l-.12,3.55c3.64-.56,7.28-1.07,10.93-1.55,.75-22.07,1.49-44.13,2.24-66.19Zm153.04-12.06c-1.06-.08-2.12-.14-3.18-.21-.37,10.92-.74,21.84-1.11,32.76,1.02-2.41,2.2-5.17,3.46-8.1,.28-8.15,.55-16.29,.83-24.44Zm-13.38,79.68c3.54,.54,7.08,1.12,10.61,1.73,.28-8.26,.56-16.52,.84-24.77,1.39-2.88,2.9-6.02,4.47-9.31-.43-2.44-.85-4.78-1.24-6.94-2.25,4.71-4.39,9.19-6.31,13.17-.28,8.26-.56,16.52-.84,24.77-2.48-.43-4.96-.83-7.45-1.23-.03,.86-.06,1.72-.09,2.58Zm49.72-28.48s.01,0,.02,0h0c3.57,.75,9.49,2.04,12.22,2.67,.14-4.16,.28-8.33,.42-12.49-.82-.18-1.92-.41-3.16-.68-.12,3.36-.23,6.73-.34,10.09-2.73-.63-8.65-1.92-12.22-2.68h0s-.01,0-.01,0c-.29,8.49-.58,16.97-.87,25.46,1.06,.25,2.11,.52,3.16,.78,.27-7.72,.53-15.43,.79-23.15Zm25.85,23.44l-.02,.68c-.1,3.05,.27,5.47,1.13,7.27,.72,1.52,1.77,2.59,3.16,3.23-.02-.05-.05-.09-.08-.15-.86-1.8-1.23-4.22-1.13-7.27,.02-.57,.04-1.14,.06-1.71-1.07-.59-2.11-1.28-3.12-2.05Zm22.46-56.83c-1.37-2.48-3.04-4.46-4.98-5.96,.68,.87,1.32,1.83,1.9,2.88,2.68,4.84,3.9,10.89,3.66,18.06-.07,2.32-.16,4.64-.24,6.97,1.12,1.43,2.14,3.01,3.02,4.72,.1-2.87,.2-5.75,.29-8.61,.24-7.17-.97-13.22-3.66-18.06Zm-65.09-15.99c-3.3,7.05-7.29,15.51-11.33,24.03,3.42,17.1,8.06,41.11,11.24,57.53-2.77-.62-5.54-1.22-8.31-1.79,.15,.88,.3,1.73,.44,2.53,3.66,.74,7.3,1.52,10.95,2.35-.16-.81-.31-1.64-.48-2.48-.22-.05-.44-.11-.67-.16,.03-.93,.06-1.87,.09-2.8-3.09-15.98-7.13-36.79-10.18-52.08,4.55-9.59,9.03-19.1,12.54-26.61-1.43-.17-2.86-.34-4.29-.5Zm29.71,78.3c-.12,3.6-.25,7.2-.37,10.8-8.09-2.33-16.2-4.43-24.34-6.36-.03,.78-.05,1.55-.08,2.33,9.2,2.12,18.37,4.48,27.51,7.11,.14-4.16,.28-8.32,.42-12.47-.05-.21-.1-.41-.15-.62-.99-.27-1.99-.52-2.98-.79Zm-134.7,.46c-.94-.01-1.88,0-2.81-.02-1.18,0-2.36-.02-3.54-.02s-2.36,.01-3.54,.02c-.94,0-1.88,0-2.81,.02h0c-28.86,.38-57.72,3.28-86.46,8.69,5.94,2.15,10.21,6.21,11.2,11.46,.55,2.91,.13,6.42-1.11,9.96,26.72-4.67,52.28-7.17,77.76-7.46,.15,0,.31,0,.46,0,1.5-.01,3-.02,4.5-.02,1.5,0,3,0,4.5,.02,.15,0,.31,0,.47,0,25.11,.29,53.04,3.34,79.55,7.93-1.35-4.18-1.44-8.46-.17-12,1.45-4.03,5.43-7.3,10.54-9.28-28.79-5.42-59.72-8.91-88.54-9.28h0Zm-72.84,21.99c-2.62,.37-3.94-.02-5.45-.46-.02-.92-.05-1.84-.08-2.76,2.19,.9,3.52,1.14,5.17,.91,1.43-.2,2.19-.73,2.17-1.49-.07-2.12-7.68-.25-7.82-4.84-.07-2.21,2.12-4.02,5.61-4.51,1.67-.23,3.2-.14,5.12,.31,.02,.83,.05,1.66,.07,2.5-2.21-.54-3.52-.68-4.79-.51-1.35,.19-2.19,.72-2.17,1.37,.06,1.92,7.68,.33,7.82,4.82,.07,2.46-2.3,4.19-5.65,4.66Zm21.9-3.46c-2.1,1.08-3.7,1.55-5.92,1.74-5.85,.48-8.74-2.45-8.73-5.77,.01-3.43,3.31-6.98,9.07-7.46,2.1-.17,3.98,.07,5.45,.72,0,.96,0,1.91,0,2.87-1.66-.67-3.33-1.07-5.19-.92-3.2,.25-5.46,2.09-5.47,4.37,0,2.3,2.21,3.73,5.34,3.48,1.97-.16,3.29-.79,5.47-1.83,0,.94,0,1.87-.01,2.81Zm9.96,.51c-5.53,.45-8.75-2.54-8.87-5.81-.1-3.09,2.73-6.88,8.41-7.35,5.68-.45,8.74,2.88,8.85,5.96,.12,3.29-2.98,6.77-8.4,7.2Zm22.11-11.55c-1.61,.03-3.21,.07-4.81,.12,.04,3.5,.08,6.99,.11,10.49-1.26,.04-2.51,.08-3.76,.12-.04-3.49-.08-6.99-.11-10.49-1.82,.07-3.65,.14-5.47,.23,0-.79-.02-1.57-.03-2.36,4.69-.22,9.38-.37,14.07-.47v2.35Zm10.56-.09c.04,3.5,.08,7,.11,10.49-1.26,0-2.51,0-3.77,.01-.03-3.49-.07-6.99-.11-10.49-1.66,0-3.32,.03-4.97,.06v-2.35c4.73-.08,9.46-.09,14.19-.04,0,.79,.02,1.57,.02,2.35-1.82-.02-3.65-.03-5.48-.03Zm77.25,3.47c0,.79,.01,1.57,.03,2.36-2.4-.36-4.8-.7-7.19-1.03,0,.9,.02,1.79,.02,2.69,2.29,.31,4.58,.64,6.87,.98,0,.78,.01,1.57,.03,2.35-2.29-.34-4.58-.66-6.87-.97,.01,1.03,.02,2.06,.03,3.09,2.45,.33,4.9,.68,7.35,1.05,0,.78,.01,1.57,.02,2.35-3.7-.55-7.4-1.07-11.1-1.55-.05-4.28-.09-8.56-.14-12.84,3.66,.47,7.31,.98,10.95,1.52Zm-20.67-2.69c.04,3.5,.08,6.99,.13,10.49,2.58,.27,5.16,.58,7.74,.89,0,.79,.02,1.57,.03,2.35-3.83-.47-7.66-.9-11.5-1.28-.05-4.28-.11-8.56-.16-12.84,1.25,.12,2.5,.25,3.76,.39Zm-11.48-1.14c2.22,4.49,4.45,9,6.67,13.52-1.35-.15-2.7-.29-4.06-.43-.41-.89-.82-1.78-1.23-2.67-2.25-.22-4.5-.43-6.75-.63-.38,.81-.76,1.63-1.14,2.44-1.33-.11-2.66-.22-3.99-.32,2.04-4.12,4.09-8.23,6.13-12.33,1.46,.13,2.91,.26,4.36,.41Zm-18.41-1.27c5.51,.31,8.37,3.45,8.39,6.96,.02,3.7-2.7,6.19-8.73,5.86-2.08-.11-4.16-.21-6.25-.3-.03-4.28-.06-8.56-.09-12.84,2.22,.09,4.45,.2,6.67,.32Zm-14.87-.74c1.68,.02,3.22,.34,5.15,1.07,.02,.84,.05,1.67,.07,2.5-2.22-.87-3.53-1.2-4.82-1.22-1.35-.01-2.2,.4-2.19,1.04,.06,1.92,7.73,1.47,7.87,5.98,.08,2.47-2.31,3.84-5.69,3.81-2.64-.02-3.96-.6-5.48-1.26-.03-.92-.05-1.85-.09-2.77,2.21,1.22,3.55,1.66,5.21,1.68,1.44,.01,2.2-.41,2.18-1.16-.06-2.13-7.73-1.4-7.87-5.99-.07-2.22,2.14-3.71,5.64-3.67Zm-170.13-22.58c-.43-3.73-.84-7.25-1.18-9.83-.22,.09-.45,.18-.67,.27-1.6,8.41-3.2,16.77-4.8,25.07,.39-.15,2.14-.79,3.95-1.45,.9-4.67,1.8-9.36,2.7-14.07Zm303.81-56.52c-.11,3.35-.23,6.7-.34,10.05-4.4-.88-12.13-2.24-16.99-3.08-.25,7.41-.5,14.83-.75,22.24,.92,.19,2.01,.41,3.16,.65,.22-6.6,.44-13.21,.67-19.81,4.61,.79,11.8,2.05,16.28,2.94,.23-1.22,.51-2.4,.84-3.52,.1-2.97,.2-5.94,.3-8.91-.92-.17-2-.36-3.17-.57Zm26.82,35.4c.78,1,1.47,2.1,2.1,3.31,2.58,5.03,3.64,14.49,3.36,22.7-.11,3.49-.24,6.96-.35,10.45-.24,7.13-1.97,15-5.01,18.01-3.03,3.02-7.1,3.63-12.22,1.95-2.24-.73-4.25-1.83-6.03-3.27,2.43,3.04,5.47,5.16,9.11,6.35,5.12,1.68,9.19,1.08,12.22-1.95,3.03-3.01,4.76-10.88,5-18.01,.11-3.48,.24-6.96,.35-10.45,.28-8.21-.77-17.66-3.36-22.7-1.36-2.64-3.09-4.76-5.18-6.39Zm-129.36,48.57c-.74,1.6-1.48,3.19-2.23,4.78,1.55,.14,3.1,.28,4.65,.44-.8-1.74-1.61-3.48-2.42-5.22Zm105.53-23.19c1.07,1.31,2.24,2.5,3.47,3.53-1.27-1.5-2.43-3.16-3.42-4.96-.02,.48-.03,.95-.05,1.43Zm-122.18,29.52c3.79,.2,4.9-1.89,4.89-3.78-.01-2.2-1.42-4.17-4.99-4.36-.8-.04-1.61-.09-2.41-.12,.02,2.71,.03,5.42,.05,8.14,.82,.04,1.64,.08,2.46,.13Zm-59.35-7.68c-2.88,.23-4.72,1.97-4.64,4.31,.08,2.35,2.04,3.74,4.91,3.51,2.85-.23,4.7-1.92,4.62-4.27-.08-2.35-2.04-3.78-4.89-3.55Zm-51.54-61.51c3.59-.95,7.19-1.88,10.78-2.76,.11-3.12,.21-6.24,.32-9.36-.94,.24-1.88,.5-2.82,.75-.06,1.81-.12,3.62-.19,5.43-3.73,.9-7.45,1.87-11.17,2.85-.58,17.08-1.29,37.56-1.86,54.49-2.5,.45-5,.92-7.51,1.41-.04,1.25-.08,2.5-.12,3.71,3.57-.72,7.14-1.41,10.71-2.05,.57-16.92,1.28-37.41,1.85-54.49Zm-21.79,3.69c-.3-.44-.64-.82-.99-1.17-.34,.1-.68,.2-1.02,.31,.75,2.17,1.06,5.03,.94,8.55-.13,3.88-.77,7.16-1.91,9.83-1.14,2.68-2.93,5.08-5.38,7.22,2.3,8.73,4.61,17.6,6.91,26.62-2.96,.64-5.91,1.31-8.86,2,.47,1.87,.79,3.18,.89,3.59,3.68-.88,7.36-1.72,11.04-2.52-2.3-9.02-4.6-17.89-6.91-26.62,2.45-2.13,4.24-4.53,5.38-7.22,1.14-2.68,1.78-5.96,1.91-9.83,.12-3.52-.2-6.37-.95-8.55,2.25-.69,4.51-1.36,6.76-2.01,.05-1.35,.09-2.7,.14-4.01-2.64,.75-5.28,1.53-7.91,2.33-.02,.49-.04,.99-.05,1.48Zm-34.87,59.72c.04-1.12,.08-2.26,.12-3.4-2.26-13.07-6.7-38.57-8.18-46.8-.79,.32-1.57,.66-2.36,.99,2.42,13.69,7.69,44.06,8.65,49.73-2.8,.81-5.61,1.65-8.41,2.5,.19,1.28,.38,2.56,.57,3.85,3.64-1.13,7.28-2.22,10.92-3.27-.14-.8-.36-2.1-.65-3.77-.22,.07-.44,.13-.67,.19Zm16.22-55.2c-1.28,.44-2.56,.88-3.84,1.32v.02h-.02c-.54,16.08-1.16,34.92-1.7,50.95-2.48,.65-4.97,1.33-7.45,2.02-.04,1.34-.09,2.67-.13,3.97,3.55-1.01,7.1-1.98,10.66-2.91,.38-11.16,.79-23.69,1.19-35.7-.23-.91-.4-1.57-.48-1.88,.18-.06,.36-.11,.55-.17,.15-4.52,.3-8.95,.44-13.19h.02v-.03c1.28-.44,2.56-.88,3.84-1.32,1.36-.46,2.48-.68,3.4-.67-.21-1.13-.57-1.95-1.09-2.42-.97-.89-2.76-.89-5.39,0Zm-41.58,51.18c-.82,4.25-1.64,8.5-2.46,12.72-2.1,.72-4.21,1.45-6.3,2.2-.34,1.51-.68,3.03-1.01,4.54,3.46-1.25,6.93-2.47,10.4-3.66,.82-4.23,1.64-8.47,2.46-12.72,2-.71,5.65-2.02,8.45-3.01-.2-1.31-.39-2.64-.58-3.94-2.57,.87-8.25,2.92-10.95,3.87Z"/><path class="cls-2" d="M126.62,141.84c3.64-.56,7.28-1.07,10.92-1.55,.75-22.07,1.49-44.13,2.24-66.19-3.65,.84-7.31,1.72-10.96,2.64-.74,21.7-1.47,43.4-2.2,65.1Zm39.97-74.24c-.14-.02-.44-.01-.61-.01-2.78,0-5.12,.66-5.91,.93-.01,0-.03,.02-.04,.03-4.12,1.2-7.48,3.35-10.07,6.37-3.1,3.62-4.81,10.11-4.98,15.37-.36,10.6-.72,21.21-1.08,31.8-.15,4.33,.69,9.78,2.61,12.34,.33,.48,.68,.95,1.07,1.36,2.67,2.83,6.72,4,12.15,3.55,.06,0,.12-.02,.18-.03,.07,0,.13,0,.2,0,4.97-.42,8.97-2.26,11.99-5.65,3.01-3.39,4.62-7.87,4.81-13.43,.07-2.22,.15-4.45,.22-6.68-2.01,2.41-4.53,4.37-7.3,5.74-1.27,.63-2.59,1.13-3.95,1.54-.01,.44-.03,.89-.04,1.33-.08,2.39-.61,4.22-1.58,5.49-.97,1.28-2.37,1.99-4.2,2.17-1.83,.18-3.19-.27-4.09-1.34-.89-1.08-1.23-4.87-1.15-7.22,.38-11.22,.76-22.43,1.13-33.64,.08-2.34,.68-6.28,1.65-7.62,.64-.87,1.68-1.64,2.46-1.96,.78-.33,1.91-.64,3.23-.64,1.11,.05,1.99,.44,2.62,1.18,.9,1.03,1.3,2.75,1.22,5.14-.01,.44-.03,.89-.04,1.33,1.34,.07,2.64,.25,3.88,.59,2.7,.71,5.11,2.14,6.97,4.15,.07-2.23,.15-4.45,.23-6.68,.19-5.55-1.12-9.75-3.93-12.49-2-1.94-4.56-2.94-7.66-3.03Zm-73.87,25.77c-.43-.64-.91-1.18-1.47-1.61-2.54-1.96-6.75-1.94-12.65,.14-5.24,1.85-10.47,3.77-15.69,5.77-.09,2.67-.18,5.32-.27,7.99,0,0-.01,0-.02,0-.54,15.88-1.14,34.63-1.68,50.51,3.55-1.01,7.1-1.98,10.66-2.91,.54-16.02,1.15-34.87,1.7-50.94h.02v-.03c1.28-.44,2.56-.88,3.84-1.32,2.62-.89,4.42-.89,5.39,0,.97,.88,1.4,2.93,1.3,6.12-.12,3.52-.68,6.09-1.69,7.67-1,1.59-2.74,2.75-5.2,3.51-.52,.16-1.04,.32-1.57,.49,.68,2.64,7.4,29.41,7.93,31.56,3.67-.88,7.36-1.72,11.04-2.51-2.3-9.02-4.6-17.89-6.91-26.62,2.45-2.13,4.24-4.53,5.38-7.22,1.14-2.68,1.77-5.96,1.91-9.83,.12-3.52-.2-6.37-.94-8.55,3.32-1.02,6.65-1.99,9.97-2.94-.57,16.78-1.26,36.96-1.82,53.57,3.57-.72,7.14-1.4,10.71-2.05,.57-16.92,1.28-37.41,1.86-54.49,3.72-.99,7.45-1.95,11.17-2.85,.11-3.12,.21-6.24,.32-9.37-11.04,2.84-22.07,6.04-33.07,9.59-.07,2.11-.14,4.21-.21,6.31Zm-56.82,15.42c-4.41,20.26-8.8,40.17-13.18,59.74,3.46-1.25,6.92-2.47,10.4-3.66,.82-4.23,1.64-8.47,2.46-12.72,2.7-.95,8.37-3.01,10.95-3.87,.58,3.87,1.15,7.76,1.73,11.67,3.64-1.13,7.28-2.22,10.92-3.27-1.07-6.33-7.53-43.51-9.37-53.79-4.64,1.9-9.27,3.87-13.9,5.91Zm1.31,34.89c1.6-8.31,3.2-16.66,4.8-25.07,.22-.09,.44-.18,.67-.27,.71,5.53,1.79,15.35,2.63,22.39-1.57,.55-7.35,2.67-8.1,2.95Zm327.9-42.82c-.14,4.08-.27,8.15-.42,12.22,1.66,.52,2.91,1.64,3.71,3.37,.86,1.82,1.13,7.03,1.03,10.11-.16,4.8-.32,9.6-.49,14.4-.1,3.09-.73,8.01-1.69,9.26-.96,1.26-2.33,1.59-4.11,1.03-1.78-.56-3.1-1.74-3.95-3.54-.86-1.8-1.23-4.22-1.13-7.27,.02-.57,.04-1.14,.06-1.71-1.3-.72-2.56-1.57-3.76-2.56-2.62-2.15-4.95-4.98-6.75-8.26-.09,2.77-.19,5.54-.28,8.3-.23,6.91,1,12.73,3.7,17.59,2.7,4.86,6.48,8.07,11.32,9.65,5.12,1.68,9.19,1.07,12.22-1.95,3.03-3.01,4.76-10.88,5.01-18.01,.11-3.49,.24-6.96,.35-10.45,.28-8.21-.77-17.66-3.36-22.7-2.54-4.96-6.37-8.13-11.47-9.5Zm12.37-21c-2.68-4.84-6.45-7.81-11.31-8.88-5.14-1.13-9.24,.03-12.3,3.35-3.06,3.33-4.8,11.09-5.03,17.96-.12,3.36-.23,6.71-.34,10.07-.27,7.91,.81,16.93,3.42,21.78,2.56,4.78,6.4,7.92,11.5,9.48,.14-4.07,.28-8.14,.41-12.21-1.66-.53-2.91-1.64-3.72-3.35-.86-1.79-1.14-6.93-1.04-9.97,.17-4.74,.33-9.48,.49-14.22,.1-3.04,.73-7.95,1.69-9.27,.96-1.32,2.34-1.78,4.12-1.36,1.78,.42,3.11,1.51,3.96,3.28,.85,1.76,1.23,4.19,1.12,7.28-.02,.58-.03,1.15-.06,1.72,1.3,.69,2.56,1.52,3.76,2.51,2.61,2.14,4.92,5.07,6.69,8.51,.1-2.87,.2-5.75,.29-8.61,.24-7.17-.97-13.22-3.66-18.06Zm-48.31,33.39s.01,0,.01,0h0c3.57,.75,9.49,2.04,12.22,2.67,.14-4.16,.28-8.33,.42-12.49-2.73-.59-8.67-1.84-12.24-2.57,.25-7.41,.5-14.83,.75-22.24,4.86,.83,12.6,2.2,16.99,3.08,.15-4.19,.29-8.38,.43-12.56-4.72-.87-13.27-2.3-18.01-3.04,0,.02,0,.03,0,.05-3.19-.47-6.39-.92-9.58-1.33-.96,28.05-1.91,56.09-2.86,84.14,9.2,2.12,18.37,4.48,27.5,7.11,.15-4.35,.3-8.7,.44-13.05-5.64-1.53-11.29-2.97-16.95-4.31,.29-8.49,.58-16.97,.87-25.46Zm-22.86-50.02c-3.45,8.5-10.49,24.51-14.69,34.46,.4-11.88,.81-23.75,1.21-35.63-3.55-.26-7.1-.48-10.65-.67-.27,8.14-.55,16.28-.83,24.42,.01,.02,.03,.04,.04,.07v.03l.03,.02c1.31,2.63,1.46,2.66,2.7,6.22,1.24,3.58,2.51,8.43,2.35,13.8,0,.12,0,.25-.01,.37,0,.17-.02,.33-.03,.48,0,.08,0,.2,0,.33v.09c-.28,6.35-2.02,12.05-4.84,16.79-.14,.27-.73,1.17-.73,1.17-.28,.42-.58,.82-.87,1.23-.17,5.11-.34,10.21-.52,15.32,3.54,.54,7.08,1.11,10.61,1.72,.28-8.26,.56-16.51,.84-24.77,1.92-3.98,4.06-8.45,6.31-13.17,2.16,12.11,5.36,29.95,7.2,40.65,3.66,.74,7.31,1.52,10.95,2.34-3.18-16.42-7.82-40.43-11.24-57.53,4.55-9.59,9.03-19.1,12.54-26.61-3.45-.41-6.9-.8-10.36-1.15Zm-102.05,29.73c-2.47,.15-7.96,.52-10.76,.73,.33-9.73,.66-19.46,.99-29.19-3.56,.43-7.12,.91-10.68,1.42-.8,23.52-1.59,47.04-2.39,70.57,3.55-.16,7.1-.28,10.65-.36,.36-10.68,.72-21.36,1.09-32.04,2.8-.17,8.28-.51,10.75-.62-.37,10.84-.73,21.69-1.1,32.53,3.58,0,7.15,.02,10.73,.1,.19-5.62,.38-11.24,.57-16.87-2.11-4.85-3.21-10.28-3.03-16.04,0-.23,.02-.45,.03-.66,.26-6,1.51-11.89,4.17-17.62,.25-7.52,.51-15.05,.77-22.57-3.59,.28-7.18,.61-10.77,.97-.34,9.89-.67,19.78-1,29.66Z"/><path class="cls-1" d="M260.69,87.73c0-.37-.02-.75-.03-1.13,0,0,0-.07,0-.19-1.61-7.28-10.14-13.77-14.45-16.53,1.79,3.02,4.38,8.01,6.45,14.61-3.69-7.63-7.1-12.44-9.16-15-1.41,5.75-4.05,10.73-4.86,12.18,.11,.13,.23,.27,.34,.4,1.01-1.43,3.4-5.09,4.76-9.37,7.07,8.17,10.94,16.88,10.94,16.88,0,0-1.94-9.29-4.62-15.41,7.39,5.99,9.82,11.1,10.62,13.56Zm.43-9.35c.25,.18,.52,.37,.79,.57,.09-.89,.24-2.91-.04-5.38,2.61,2.94,5.64,7.97,5.64,7.97,0,0-1.17-3.38-2.19-6.27,4.81,5.35,6.91,9.07,7.74,10.84,0-.07,0-.13,0-.21,.09-2.06-5.53-10.47-11.14-15.78,1.18,2.08,2.69,5.06,4.17,8.87-2.04-4.19-4.41-7.38-5.92-9.22,.68,2.73,.72,6.4,.95,8.61Zm15.73,11.03c-.29-.59-.47-.92-.47-.92,0,0,.39,2.95-.66,6.63,.47,.99,.89,2,1.26,3.04,.68-1.98,.93-5.77-.12-8.74Zm-7.36,17.4c-.86-8.92-2.96-15.06-4.61-18.7,.26,14.32-3.99,21.07-3.99,21.07,0,0-4.16-9.24-11.92-14.71-2.97-1.94-7.63-4.48-10.46-7.05,1.56,4.64,5.34,15.6,8.69,23.03-5.21-8.85-9.94-20.29-11-22.91-1.61,7.02-.73,18.83-.73,18.83,0,0-1.3-5.51-7.22-11.09-2.82-2.67-4.81-5.13-6.14-6.93-.7,3.14-1.4,9.36,.85,18-2.62-5.32-3.03-12.79-2.99-17.39-1.93,4.59-2.84,9.25-3.06,14.18-.03,.73-.03,1.45-.02,2.16,.52-6.48,2.13-10.99,2.13-10.99,0,0,.24,7.14,5,15.07-2.65-10.18-.96-17.08-.96-17.08,0,0,2.6,2.95,5.57,5.64,5.58,5.17,7.27,10.6,7.27,10.6,0,0,.02-12.6,1.04-15.81,4.47,11.35,11.72,19.82,11.72,19.82,0,0-5.41-12.49-6.19-19.77,2.8,2.22,9.8,3.57,18.84,17.99,4.77-8.11,4.67-16.14,4.67-16.14,0,0,2.72,7.96,3.33,15.3,1.92-8.09,.2-15.56,.2-15.56,0,0,4.89,5.71,5.3,17.34,.02-.29,.05-.58,.06-.87,.37-8.07-2.65-15.79-7.77-21.7,1.21,3.75,2.68,10.01,2.41,17.66Zm-26.43-49.53c.51,1.58,1.24,4.11,1.82,7.16,.22,.11,.43,.23,.65,.34-.18-1.89-.74-5.1-.74-5.1,0,0,4.81,3.8,8.03,7.72-1.49-3.23-2.71-5.02-3.32-5.83,0,0,3.77,3.14,5.95,5.77-.18-.48-.38-.96-.64-1.42-3.72-4.38-8.54-7.88-10.91-9.48,1.66,1.73,3.88,4.26,6.29,7.64-2.6-3.07-5.23-5.34-7.13-6.81Zm-17.11,20.28s.98,4.32,3.44,7.1c-.52-3.99-.4-7.96-.4-7.96,0,0,2.74,2.55,4.45,5.42,.1-.24,.2-.48,.31-.7-.87-2.45-4.41-6.21-6.04-8.36-.08,2.32,0,5.96,.88,10.19-1.25-4.19-1.87-7.61-2.17-9.95-1.2,3.14-2.88,7.44-3.08,9.84l.37,.52c.66-2.49,2.23-6.09,2.23-6.09Zm3.76-8.5c.12,.15,.24,.3,.36,.46,.24-1.9,.93-4.51,1.27-6.91,2.12,3.4,4.53,8.09,4.53,8.09,0,0-.49-4.95-1.49-8.48,3.18,2.43,4.68,4.28,5.25,5.11,.01-.04,.02-.08,.03-.12,0,0,.05-.24,.13-.6-1.81-2.48-5.5-6.13-8.25-8.17,1,2.19,2.32,5.51,3.5,9.81-1.43-3.89-3.2-7.02-4.5-9.06,.21,3.5-.65,7.32-.84,9.41-.01,.15,0,.3,.02,.46Z"/></svg>